<?xml version="1.0" encoding="utf-8"?>
<!-- Generator: Adobe Illustrator 26.5.3, SVG Export Plug-In . SVG Version: 6.00 Build 0)  -->
<svg version="1.1" id="Layer_1" xmlns="http://www.w3.org/2000/svg" xmlns:xlink="http://www.w3.org/1999/xlink" x="0px" y="0px"
	 viewBox="0 0 122.8 40.7" style="enable-background:new 0 0 122.8 40.7;" xml:space="preserve">
<path d="M64.9,11c0,1.4-1.1,2.5-2.5,2.5s-2.5-1.1-2.5-2.5s1.1-2.5,2.5-2.5C63.9,8.6,64.9,9.7,64.9,11z M54.7,16.1c0,0.2,0,0.6,0,0.6
	s-1.2-1.5-3.7-1.5c-4.2,0-7.4,3.2-7.4,7.6c0,4.4,3.3,7.6,7.4,7.6c2.6,0,3.7-1.6,3.7-1.6v0.7c0,0.3,0.2,0.6,0.6,0.6h3.1V15.5
	c0,0-2.8,0-3.1,0C54.8,15.5,54.7,15.8,54.7,16.1z M54.7,25.3c-0.6,0.9-1.7,1.6-3.1,1.6c-2.5,0-4.4-1.5-4.4-4.2s1.9-4.2,4.4-4.2
	c1.3,0,2.6,0.8,3.1,1.6V25.3z M60.5,15.5h3.7v14.4h-3.7V15.5z M115.6,15.1c-2.5,0-3.7,1.5-3.7,1.5V8.6h-3.7v21.3c0,0,2.8,0,3.1,0
	s0.6-0.2,0.6-0.6v-0.7l0,0c0,0,1.2,1.6,3.7,1.6c4.2,0,7.4-3.3,7.4-7.6C123,18.3,119.7,15.1,115.6,15.1z M114.9,26.8
	c-1.4,0-2.5-0.7-3.1-1.6v-5.2c0.6-0.8,1.8-1.6,3.1-1.6c2.5,0,4.4,1.5,4.4,4.2S117.4,26.8,114.9,26.8z M106.2,21.4V30h-3.7v-8.2
	c0-2.4-0.8-3.3-2.8-3.3c-1.1,0-2.3,0.6-3,1.4V30h-3.7V15.5H96c0.3,0,0.6,0.2,0.6,0.6v0.6c1.1-1.1,2.5-1.5,3.9-1.5
	c1.6,0,2.9,0.5,4,1.4C105.7,17.6,106.2,18.9,106.2,21.4z M84.1,15.1c-2.5,0-3.7,1.5-3.7,1.5V8.6h-3.7v21.3c0,0,2.8,0,3.1,0
	s0.6-0.2,0.6-0.6v-0.7l0,0c0,0,1.2,1.6,3.7,1.6c4.2,0,7.4-3.3,7.4-7.6C91.6,18.3,88.3,15.1,84.1,15.1z M83.5,26.8
	c-1.4,0-2.5-0.7-3.1-1.6v-5.2c0.6-0.8,1.8-1.6,3.1-1.6c2.5,0,4.4,1.5,4.4,4.2S85.9,26.8,83.5,26.8z M73.5,15.1
	c1.1,0,1.7,0.2,1.7,0.2v3.4c0,0-3.1-1-5,1.2V30h-3.7V15.5c0,0,2.8,0,3.1,0s0.6,0.2,0.6,0.6v0.6C70.9,15.9,72.4,15.1,73.5,15.1z
	 M35.3,28.6c-0.2-0.5-0.4-1-0.6-1.4c-0.3-0.7-0.6-1.3-0.9-2h-0.1c-2.6-5.8-5.5-11.6-8.5-17.4l-0.1-0.2c-0.3-0.6-0.6-1.2-0.9-1.8
	c-0.4-0.7-0.8-1.4-1.4-2.1c-1.2-1.5-3-2.4-4.8-2.4c-1.9,0-3.6,0.9-4.9,2.3c-0.6,0.7-1,1.4-1.4,2.1c-0.3,0.6-0.6,1.2-0.9,1.8
	l-0.1,0.2c-2.9,5.8-5.8,11.6-8.5,17.4l-0.1,0.1c-0.2,0.6-0.6,1.3-0.9,2c-0.2,0.4-0.4,0.9-0.6,1.4c-0.5,1.3-0.7,2.7-0.5,4.1
	c0.4,2.9,2.4,5.3,5,6.4c1,0.4,2,0.6,3.1,0.6c0.3,0,0.7-0.1,1-0.1c1.3-0.2,2.6-0.6,3.9-1.3c1.6-0.9,3.1-2.1,4.8-4
	c1.7,1.8,3.3,3.1,4.8,4c1.3,0.7,2.6,1.2,3.9,1.3c0.3,0.1,0.7,0.1,1,0.1c1.1,0,2.1-0.2,3.1-0.6c2.7-1.1,4.5-3.6,5-6.4
	C36,31.4,35.8,30.1,35.3,28.6z M18,30.6c-2.1-2.6-3.4-5.1-3.9-7.1c-0.2-0.9-0.2-1.7-0.1-2.3c0.1-0.6,0.3-1.2,0.6-1.6
	c0.7-1,2-1.7,3.4-1.7s2.7,0.6,3.4,1.7c0.3,0.5,0.6,1,0.6,1.6c0.1,0.7,0.1,1.5-0.1,2.3C21.4,25.5,20.1,28,18,30.6z M33.3,32.4
	c-0.2,2-1.6,3.7-3.5,4.5c-0.9,0.4-1.9,0.5-2.9,0.4c-1-0.1-1.9-0.4-2.9-1c-1.4-0.8-2.8-2-4.4-3.7c2.5-3.1,4-5.9,4.7-8.5
	c0.2-1.2,0.3-2.3,0.2-3.3c-0.2-1-0.5-1.8-1-2.6c-1.2-1.7-3.2-2.7-5.4-2.7s-4.2,1-5.4,2.7c-0.6,0.8-0.9,1.7-1,2.6
	c-0.2,1-0.1,2.1,0.2,3.3c0.6,2.5,2.1,5.4,4.7,8.5c-1.6,1.8-3,2.9-4.4,3.7c-1,0.6-2,0.9-2.9,1c-1,0.1-2-0.1-2.9-0.4
	c-1.9-0.8-3.3-2.5-3.5-4.5c-0.1-1-0.1-1.9,0.4-3c0.1-0.4,0.3-0.8,0.5-1.2c0.2-0.6,0.6-1.3,0.9-1.9l0.1-0.1C7.1,20.6,9.9,14.8,13,9.1
	l0.1-0.2c0.3-0.6,0.6-1.2,0.9-1.8s0.7-1.2,1.1-1.7c0.8-0.9,1.9-1.4,3.1-1.4s2.3,0.5,3.1,1.4c0.4,0.5,0.8,1.1,1.1,1.7
	c0.3,0.6,0.6,1.2,0.9,1.8l0.1,0.2c2.9,5.7,5.8,11.5,8.4,17.2v0.1c0.3,0.6,0.6,1.3,0.9,1.9c0.2,0.5,0.4,0.9,0.5,1.2
	C33.3,30.5,33.4,31.4,33.3,32.4z"/>
</svg>
