<?xml version="1.0" encoding="utf-8"?>
<!-- Generator: Adobe Illustrator 26.5.3, SVG Export Plug-In . SVG Version: 6.00 Build 0)  -->
<svg version="1.1" id="Layer_1" xmlns="http://www.w3.org/2000/svg" xmlns:xlink="http://www.w3.org/1999/xlink" x="0px" y="0px"
	 viewBox="0 0 122.8 40.7" style="enable-background:new 0 0 122.8 40.7;" xml:space="preserve">
<g>
	<g>
		<path d="M39.2,29.3l1.5-3.6c1.7,1.2,3.9,1.9,6.1,1.9c1.6,0,2.6-0.6,2.6-1.5c0-2.6-9.6-0.6-9.7-7.2c0-3.4,2.9-5.9,7.2-5.9
			c2.5,0,5,0.6,6.8,2l-1.4,3.6c-1.7-1-3.7-1.8-5.6-1.8c-1.3,0-2.2,0.6-2.2,1.4c0,2.6,9.7,1.2,9.8,7.5c0,3.4-2.9,5.8-7,5.8
			C44.1,31.6,41.3,30.8,39.2,29.3"/>
		<path d="M98.1,24.4c-0.8,1.3-2.2,2.3-3.9,2.3c-2.5,0-4.4-2-4.4-4.4s2-4.4,4.4-4.4c1.7,0,3.1,0.9,3.9,2.3l4.2-2.3
			c-1.6-2.8-4.6-4.8-8.1-4.8c-5.1,0-9.3,4.2-9.3,9.3s4.2,9.3,9.3,9.3c3.5,0,6.5-1.9,8.1-4.8L98.1,24.4z"/>
		<rect x="56.3" y="5.3" width="5.3" height="25.9"/>
		<polygon points="104.3,5.3 104.3,31.2 109.6,31.2 109.6,23.5 115.9,31.2 122.7,31.2 114.7,22 122.1,13.4 115.7,13.4 109.6,20.5 
			109.6,5.3 		"/>
		<path d="M77.4,24.5c-0.8,1.3-2.3,2.2-4.1,2.2c-2.5,0-4.4-2-4.4-4.4s2-4.4,4.4-4.4c1.8,0,3.4,1,4.1,2.3V24.5z M77.4,13.4v2.1
			c-0.9-1.5-3-2.5-5.3-2.5c-4.7,0-8.3,4.1-8.3,9.3s3.7,9.3,8.3,9.3c2.3,0,4.4-1,5.3-2.5v2.1h5.3V13.4H77.4z"/>
	</g>
	<g>
		<g>
			<path d="M6.5,24.5c0,1.8-1.5,3.2-3.2,3.2s-3.3-1.5-3.3-3.2c0-1.8,1.5-3.2,3.2-3.2h3.2L6.5,24.5L6.5,24.5z"/>
			<path d="M8.1,24.5c0-1.8,1.5-3.2,3.2-3.2s3.2,1.4,3.2,3.2v8.1c0,1.8-1.5,3.2-3.2,3.2s-3.2-1.5-3.2-3.2
				C8.1,32.7,8.1,24.5,8.1,24.5z"/>
		</g>
		<g>
			<path d="M11.4,11.4c-1.8,0-3.2-1.5-3.2-3.2s1.5-3.2,3.2-3.2s3.2,1.5,3.2,3.2v3.2H11.4z"/>
			<path d="M11.4,13.1c1.8,0,3.2,1.5,3.2,3.2s-1.5,3.2-3.2,3.2H3.1c-1.8,0-3.2-1.5-3.2-3.2s1.5-3.2,3.2-3.2H11.4z"/>
		</g>
		<g>
			<path d="M24.4,16.3c0-1.8,1.5-3.2,3.2-3.2c1.8,0,3.2,1.5,3.2,3.2s-1.5,3.2-3.2,3.2h-3.2V16.3z"/>
			<path d="M22.8,16.3c0,1.8-1.5,3.2-3.2,3.2c-1.8,0-3.2-1.5-3.2-3.2V8.1c0-1.8,1.5-3.2,3.2-3.2c1.8,0,3.2,1.5,3.2,3.2V16.3z"/>
		</g>
		<g>
			<path d="M19.6,29.4c1.8,0,3.2,1.5,3.2,3.2s-1.5,3.2-3.2,3.2c-1.8,0-3.2-1.5-3.2-3.2v-3.2H19.6z"/>
			<path d="M19.6,27.8c-1.8,0-3.2-1.5-3.2-3.2c0-1.8,1.5-3.2,3.2-3.2h8.2c1.8,0,3.2,1.5,3.2,3.2c0,1.8-1.5,3.2-3.2,3.2H19.6z"/>
		</g>
	</g>
</g>
</svg>
