<?xml version="1.0" encoding="utf-8"?>
<!-- Generator: Adobe Illustrator 26.5.3, SVG Export Plug-In . SVG Version: 6.00 Build 0)  -->
<svg version="1.1" id="Layer_1" xmlns="http://www.w3.org/2000/svg" xmlns:xlink="http://www.w3.org/1999/xlink" x="0px" y="0px"
	 viewBox="0 0 122.8 40.7" style="enable-background:new 0 0 122.8 40.7;" xml:space="preserve">
<g>
	<path d="M18.4,2.1C8.2,2.1,0,10.3,0,20.5s8.2,18.4,18.4,18.4s18.4-8.2,18.4-18.4S28.6,2.1,18.4,2.1L18.4,2.1z M26.9,28.6
		c-0.3,0.6-1,0.7-1.6,0.4c-4.3-2.6-9.8-3.3-16.2-1.8c-0.6,0.1-1.2-0.2-1.4-0.9S8,25.1,8.6,25c7-1.6,13-0.9,17.9,2
		C27,27.3,27.2,28.1,26.9,28.6z M29.1,23.6c-0.4,0.7-1.3,0.9-2,0.5c-5-3.1-12.5-3.9-18.3-2.1C8,22.2,7.2,21.8,7,21
		c-0.2-0.7,0.2-1.5,1-1.8c6.7-2,15-1,20.7,2.5C29.3,22.1,29.5,22.9,29.1,23.6L29.1,23.6z M29.3,18.4c-6-3.5-15.7-3.9-21.4-2.1
		C7,16.5,6,16,5.8,15.1s0.2-1.8,1.2-2.1c6.5-2,17.3-1.6,24.1,2.5c0.8,0.5,1.1,1.5,0.6,2.3C31.2,18.6,30.1,18.9,29.3,18.4L29.3,18.4z
		 M50.1,19.1c-3.2-0.7-3.7-1.3-3.7-2.4c0-1,1-1.8,2.5-1.8c1.4,0,2.9,0.6,4.4,1.7c0.1,0.1,0.1,0.1,0.2,0.1c0.1,0,0.1-0.1,0.1-0.1
		l1.5-2.2c0.1-0.1,0.1-0.2-0.1-0.3c-1.8-1.4-3.7-2.1-6.1-2.1c-3.4,0-5.8,2.1-5.8,5c0,3.1,2.1,4.3,5.6,5.2c3.1,0.7,3.6,1.3,3.6,2.3
		c0,1.2-1,1.9-2.7,1.9c-1.8,0-3.4-0.6-5.1-2.1c0-0.1-0.1-0.1-0.1-0.1s-0.1,0.1-0.1,0.1l-1.7,2.1c-0.1,0.1-0.1,0.2,0,0.3
		c2,1.8,4.4,2.7,7,2.7c3.7,0,6.1-2,6.1-5.2C55.5,21.5,54,20,50.1,19.1L50.1,19.1z M63.9,15.9c-1.6,0-2.9,0.6-4,1.9v-1.5
		c0-0.1-0.1-0.2-0.2-0.2h-2.8c-0.1,0-0.2,0.1-0.2,0.2v16.2c0,0.1,0.1,0.2,0.2,0.2h2.8c0.1,0,0.2-0.1,0.2-0.2v-5.1
		c1.1,1.2,2.4,1.8,4,1.8c3,0,6-2.3,6-6.7S66.9,15.9,63.9,15.9L63.9,15.9L63.9,15.9z M66.6,22.6c0,2.2-1.4,3.8-3.3,3.8
		c-2,0-3.4-1.7-3.4-3.8s1.5-3.8,3.4-3.8C65.2,18.8,66.6,20.4,66.6,22.6L66.6,22.6z M77.6,15.9c-3.9,0-6.8,2.9-6.8,6.8
		c0,3.7,3,6.6,6.8,6.6c3.9,0,6.9-2.9,6.9-6.7C84.4,18.9,81.4,15.9,77.6,15.9L77.6,15.9z M77.6,26.4c-2,0-3.6-1.7-3.6-3.8
		c0-2.2,1.5-3.7,3.6-3.7c2,0,3.6,1.7,3.6,3.8C81.2,24.8,79.7,26.4,77.6,26.4z M92.7,16.2h-3.1V13c0-0.1-0.1-0.2-0.2-0.2h-2.8
		c-0.1,0-0.2,0.1-0.2,0.2v3.2h-1.5c-0.1,0-0.2,0.1-0.2,0.2v2.5c0,0.1,0.1,0.2,0.2,0.2h1.4v6.4c0,2.6,1.3,3.9,3.8,3.9
		c1,0,1.8-0.2,2.6-0.7c0.1-0.1,0.1-0.1,0.1-0.2v-2.3c0-0.1-0.1-0.1-0.1-0.2c-0.1-0.1-0.1-0.1-0.2,0c-0.6,0.2-1.1,0.4-1.7,0.4
		c-0.9,0-1.4-0.4-1.4-1.4v-5.9h3.1c0.1,0,0.2-0.1,0.2-0.2v-2.5C92.8,16.3,92.8,16.2,92.7,16.2L92.7,16.2L92.7,16.2z M103.6,16.2
		v-0.4c0-1.2,0.4-1.7,1.4-1.7c0.6,0,1,0.1,1.6,0.3c0.1,0,0.1,0,0.2,0c0.1-0.1,0.1-0.1,0.1-0.2v-2.4c0-0.1-0.1-0.2-0.1-0.2
		c-0.6-0.2-1.3-0.4-2.4-0.4c-2.6,0-4,1.5-4,4.3v0.6H99c-0.1,0-0.2,0.1-0.2,0.2v2.5c0,0.1,0.1,0.2,0.2,0.2h1.4v9.8
		c0,0.1,0.1,0.2,0.2,0.2h2.8c0.1,0,0.2-0.1,0.2-0.2v-9.8h2.6l4.1,9.8c-0.5,1-0.9,1.2-1.5,1.2c-0.5,0-1-0.1-1.6-0.4
		c-0.1,0-0.1-0.1-0.2,0c-0.1,0-0.1,0.1-0.1,0.1l-1,2.1c-0.1,0.1,0,0.2,0.1,0.2c1,0.6,1.9,0.8,3.1,0.8c2.1,0,3.3-1,4.3-3.6l4.9-12.8
		c0-0.1,0-0.1,0-0.2c-0.1-0.1-0.1-0.1-0.2-0.1H115c-0.1,0-0.2,0.1-0.2,0.1l-3,8.7l-3.3-8.7c-0.1-0.1-0.1-0.1-0.2-0.1L103.6,16.2
		L103.6,16.2L103.6,16.2z M97.2,16.2h-2.8c-0.1,0-0.2,0.1-0.2,0.2v12.4c0,0.1,0.1,0.2,0.2,0.2h2.8c0.1,0,0.2-0.1,0.2-0.2V16.4
		C97.5,16.3,97.3,16.2,97.2,16.2L97.2,16.2z M95.9,10.5c-1.1,0-2,0.9-2,2s0.9,2,2,2s2-0.9,2-2S97,10.5,95.9,10.5z M120.8,20.2
		c-1.1,0-2-0.9-2-2c0-1.1,0.9-2,2-2s2,0.9,2,2C122.8,19.2,121.9,20.2,120.8,20.2z M120.8,16.4c-1,0-1.8,0.8-1.8,1.8
		c0,1,0.8,1.8,1.8,1.8c1,0,1.8-0.8,1.8-1.8C122.6,17.2,121.8,16.4,120.8,16.4z M121.2,18.4l0.6,0.8h-0.5l-0.5-0.7h-0.4v0.7h-0.4
		v-2.1h0.9c0.5,0,0.8,0.2,0.8,0.7C121.7,18.1,121.5,18.3,121.2,18.4L121.2,18.4z M120.9,17.4h-0.5v0.7h0.5c0.2,0,0.4-0.1,0.4-0.3
		C121.3,17.5,121.1,17.4,120.9,17.4z"/>
</g>
</svg>
