<?xml version="1.0" encoding="utf-8"?>
<!-- Generator: Adobe Illustrator 26.5.3, SVG Export Plug-In . SVG Version: 6.00 Build 0)  -->
<svg version="1.1" id="Layer_1" xmlns="http://www.w3.org/2000/svg" xmlns:xlink="http://www.w3.org/1999/xlink" x="0px" y="0px"
	 viewBox="0 0 122.8 40.7" style="enable-background:new 0 0 122.8 40.7;" xml:space="preserve">
<style type="text/css">
	.st0{fill:#000203;}
</style>
<g id="Page-1">
	<g id="Group">
		<path id="Fill-1" class="st0" d="M19.3,8.2v14.2c0,4.7-2.1,6.7-7,6.7s-7-2-7-6.7V7.6H0.6C0.2,7.6,0,7.8,0,8.2v14.3
			c0,7.9,5,10.7,12.3,10.7s12.3-2.8,12.3-10.7v-15h-4.7C19.5,7.6,19.3,7.9,19.3,8.2"/>
		<path id="Fill-2" class="st0" d="M87.7,11.7c0.4,0,0.6-0.1,0.7-0.4l1.3-3.4c0.1-0.2,0-0.3-0.2-0.3h-19c-1.8,0-2.5,0.6-2.5,1.8
			v21.9c0,1,0.5,1.5,1.9,1.5h17.7c0.4,0,0.6-0.1,0.7-0.4l1.3-3.4c0.1-0.2,0-0.3-0.2-0.3H73.3v-4.5c0-1.5,0.9-2.3,3.1-2.3h7
			c0.4,0,0.6-0.1,0.7-0.4l1.3-3.2c0.1-0.2,0-0.3-0.2-0.3h-12v-6.2H87.7"/>
		<path id="Fill-3" class="st0" d="M49.3,28.8H40v-4.6c0-1.5,0.9-2.3,3.1-2.3h6.2c2.9,0,3.8,1.2,3.8,3.4
			C53.1,27.7,52.3,28.8,49.3,28.8z M40,11.7h8.3c2.8,0,3.6,1,3.6,3.2c0,2.1-0.8,3.2-3.6,3.2H40V11.7z M54.3,19.6
			c2.1-1.1,2.9-3.1,2.9-5.5c0-5.6-4.5-6.4-9.3-6.4H37.3c-1.8,0-2.5,0.6-2.5,1.8v21.9c0,1,0.5,1.5,1.9,1.5h13.2c5,0,8.5-2,8.5-7
			C58.4,22.9,57.1,20.3,54.3,19.6L54.3,19.6z"/>
		<path id="Fill-4" class="st0" d="M112.9,19.3h-8.8v-7.7h8.8c3.2,0,4,1.3,4,3.8C116.9,18.1,116.2,19.3,112.9,19.3z M122.7,32.4
			l-5.6-9.7c2.8-0.7,5.1-2.6,5.1-7.3c0-6.1-3.8-7.8-10-7.8h-10.8c-1.8,0-2.5,0.6-2.5,1.8v22.8c0,0.4,0.2,0.6,0.6,0.6h4.6v-7.4
			c0-1.5,0.9-2.3,3.1-2.3h4.7l5.1,9.2c0.2,0.2,0.3,0.4,0.7,0.4h4.8C122.8,32.9,122.8,32.6,122.7,32.4L122.7,32.4z"/>
	</g>
</g>
</svg>
