<?xml version="1.0" encoding="utf-8"?>
<!-- Generator: Adobe Illustrator 26.5.3, SVG Export Plug-In . SVG Version: 6.00 Build 0)  -->
<svg version="1.1" id="Layer_1" xmlns="http://www.w3.org/2000/svg" xmlns:xlink="http://www.w3.org/1999/xlink" x="0px" y="0px"
	 viewBox="0 0 10 10" style="enable-background:new 0 0 10 10;" xml:space="preserve">
<style type="text/css">
	.st0{fill-rule:evenodd;clip-rule:evenodd;fill:#868B99;}
	.st1{fill-rule:evenodd;clip-rule:evenodd;fill:#EEF1F9;}
</style>
<rect x="1.3" y="1.2" class="st0" width="7.4" height="7.4"/>
<g>
	<path class="st1" d="M5,3.8L5,3.8C4.4,3.8,3.8,4.4,3.8,5c0,0.7,0.5,1.2,1.2,1.2l0,0c0.6,0,1.2-0.5,1.2-1.2C6.2,4.4,5.6,3.8,5,3.8z"
		/>
	<path class="st1" d="M6.5,2.3h-3c-0.7,0-1.2,0.5-1.2,1.2v3c0,0.7,0.5,1.2,1.2,1.2h3c0.7,0,1.2-0.5,1.2-1.2v-3
		C7.7,2.8,7.2,2.3,6.5,2.3z M5,6.8L5,6.8C4,6.8,3.2,6,3.2,5S4,3.2,5,3.2l0,0C6,3.2,6.8,4,6.8,5S6,6.8,5,6.8z M6.8,3.6
		c-0.2,0-0.4-0.2-0.4-0.4s0.2-0.4,0.4-0.4C7,2.9,7.1,3,7.1,3.3C7.1,3.5,7,3.6,6.8,3.6z"/>
	<path class="st1" d="M8,0H2C0.9,0,0,0.9,0,2v6c0,1.1,0.9,2,2,2h6c1.1,0,2-0.9,2-2V2C10,0.9,9.1,0,8,0z M8.3,6.5
		c0,1-0.8,1.8-1.8,1.8h-3c-1,0-1.8-0.8-1.8-1.8v-3c0-1,0.8-1.8,1.8-1.8h3c1,0,1.8,0.8,1.8,1.8V6.5z"/>
</g>
</svg>
