<?xml version="1.0" encoding="utf-8"?>
<!-- Generator: Adobe Illustrator 26.5.3, SVG Export Plug-In . SVG Version: 6.00 Build 0)  -->
<svg version="1.1" id="Layer_1" xmlns="http://www.w3.org/2000/svg" xmlns:xlink="http://www.w3.org/1999/xlink" x="0px" y="0px"
	 viewBox="0 0 10 10" style="enable-background:new 0 0 10 10;" xml:space="preserve">
<style type="text/css">
	.st0{fill-rule:evenodd;clip-rule:evenodd;fill:#868B99;}
	.st1{fill-rule:evenodd;clip-rule:evenodd;fill:#EEF1F9;}
</style>
<rect x="1.9" y="0.8" class="st0" width="5.7" height="8.1"/>
<path class="st1" d="M8,0H2C0.9,0,0,0.9,0,2v6c0,1.1,0.9,2,2,2h6c1.1,0,2-0.9,2-2V2C10,0.9,9.1,0,8,0z M6.5,2.7H5.9
	c-0.3,0-0.7,0.2-0.7,0.6v0.9h1.2L6.3,5.5h-1v3.1H3.9V5.5H2.8V4.2h1.1V3.3c0-0.9,0.6-1.7,1.5-1.7h1L6.5,2.7L6.5,2.7z"/>
</svg>
