<?xml version="1.0" encoding="utf-8"?>
<!-- Generator: Adobe Illustrator 26.5.3, SVG Export Plug-In . SVG Version: 6.00 Build 0)  -->
<svg version="1.1" id="Layer_1" xmlns="http://www.w3.org/2000/svg" xmlns:xlink="http://www.w3.org/1999/xlink" x="0px" y="0px"
	 viewBox="0 0 10 7" style="enable-background:new 0 0 10 7;" xml:space="preserve">
<style type="text/css">
	.st0{fill:#FFFFFF;}
	.st1{fill:#D7212A;}
	.st2{fill:#1E3674;}
</style>
<g>
	<path class="st0" d="M10,6.5c-3.3,1.6-6.7-1.6-10,0c0-2,0-4.1,0-6.1c3.3-1.6,6.7,1.6,10,0C10,2.5,10,4.5,10,6.5z"/>
	<g>
		<path class="st1" d="M10,6.1c-3.3,1.6-6.7-1.6-10,0c0,0.1,0,0.3,0,0.5c3.3-1.6,6.7,1.6,10,0C10,6.3,10,6.2,10,6.1z"/>
	</g>
	<g>
		<path class="st1" d="M10,5.1c-3.3,1.5-6.7-1.6-10,0c0,0.1,0,0.3,0,0.5c3.3-1.6,6.7,1.6,10,0C10,5.4,10,5.3,10,5.1z"/>
	</g>
	<g>
		<path class="st1" d="M10,4.2c-3.3,1.6-6.7-1.6-10,0c0,0.1,0,0.3,0,0.5c3.3-1.6,6.7,1.6,10,0C10,4.5,10,4.3,10,4.2z"/>
	</g>
	<g>
		<path class="st1" d="M10,3.3c-3.3,1.6-6.7-1.6-10,0c0,0.1,0,0.3,0,0.5c3.3-1.6,6.7,1.6,10,0C10,3.5,10,3.4,10,3.3z"/>
	</g>
	<g>
		<path class="st1" d="M10,2.3c-3.3,1.6-6.7-1.6-10,0c0,0.1,0,0.3,0,0.5c3.3-1.6,6.7,1.6,10,0C10,2.6,10,2.5,10,2.3z"/>
	</g>
	<g>
		<path class="st1" d="M10,1.4C6.7,3,3.3-0.2,0,1.4c0,0.1,0,0.3,0,0.5c3.3-1.6,6.7,1.6,10,0C10,1.7,10,1.5,10,1.4z"/>
	</g>
	<g>
		<path class="st1" d="M10,0.5C6.7,2,3.3-1.1,0,0.5c0,0.1,0,0.3,0,0.5c3.3-1.6,6.7,1.6,10,0C10,0.7,10,0.6,10,0.5z"/>
	</g>
	<g>
		<path class="st2" d="M4.5,3.6C3.1,3.3,1.5,3,0,3.7c0-1.1,0-2.2,0-3.3C1.5-0.3,3.1,0,4.5,0.3C4.5,1.5,4.5,2.5,4.5,3.6z"/>
	</g>
	<g>
		<g>
			<path class="st0" d="M0.3,0.7L0.3,0.7C0.3,0.7,0.3,0.7,0.3,0.7c0.1-0.1,0.1-0.1,0.1-0.2c0,0,0,0.1,0.1,0.1s0.1,0,0.1-0.1L0.6,0.5
				c0,0,0,0.1,0.1,0.1C0.4,0.7,0.4,0.7,0.3,0.7c0,0.1,0,0.1-0.1,0.1C0.3,0.8,0.3,0.7,0.3,0.7z"/>
			<path class="st0" d="M1.1,0.5C1.1,0.5,1,0.5,1.1,0.5C1.1,0.4,1.1,0.4,1.1,0.5c0.1-0.1,0.1-0.1,0.1-0.2c0,0,0,0.1,0.1,0.1
				c0.1,0,0.1,0,0.1,0L1.3,0.4c0,0,0,0.1,0.1,0.1C1.2,0.5,1.1,0.5,1.1,0.5c0,0.1,0,0.1-0.1,0.1C1.1,0.5,1.1,0.5,1.1,0.5z"/>
			<path class="st0" d="M1.8,0.4L1.8,0.4C1.7,0.3,1.8,0.3,1.8,0.4c0-0.1,0.1-0.1,0.1-0.2c0,0.1,0,0.1,0.1,0.1c0.1,0,0.1,0,0.1,0
				L2,0.4c0,0.1,0,0.1,0.1,0.1C1.9,0.5,1.9,0.5,1.8,0.4c0,0.1,0,0.1-0.1,0.1C1.8,0.5,1.8,0.4,1.8,0.4z"/>
			<path class="st0" d="M2.5,0.4L2.5,0.4C2.5,0.3,2.5,0.3,2.5,0.4c0-0.1,0.1-0.1,0.1-0.1c0,0.1,0,0.1,0.1,0.1c0.1,0,0.1,0,0.1,0
				L2.7,0.5c0,0.1,0,0.1,0.1,0.1C2.7,0.5,2.7,0.5,2.5,0.4c0,0.1,0,0.1-0.1,0.1C2.5,0.5,2.5,0.4,2.5,0.4z"/>
			<path class="st0" d="M3.3,0.5L3.3,0.5C3.3,0.4,3.3,0.4,3.3,0.5c0-0.1,0-0.1,0-0.1C3.3,0.4,3.3,0.4,3.3,0.5c0.1,0,0.1,0,0.2,0
				c0,0-0.1,0-0.1,0.1s0,0.1,0.1,0.1C3.4,0.6,3.4,0.5,3.3,0.5C3.3,0.5,3.3,0.5,3.3,0.5C3.3,0.5,3.3,0.5,3.3,0.5z"/>
			<path class="st0" d="M4.1,0.6C4,0.6,4,0.5,4.1,0.6C4,0.5,4.1,0.5,4.1,0.6c0-0.1,0.1-0.1,0.1-0.1c0,0.1,0,0.1,0.1,0.1
				c0.1,0,0.1,0,0.1,0c0,0-0.1,0-0.1,0.1s0,0.1,0.1,0.1C4.2,0.7,4.1,0.7,4.1,0.6c0,0.1,0,0.1-0.1,0.1C4.1,0.7,4.1,0.7,4.1,0.6z"/>
		</g>
		<g>
			<path class="st0" d="M0.7,0.9C0.7,0.9,0.6,0.9,0.7,0.9C0.7,0.8,0.7,0.8,0.7,0.9c0.1-0.1,0.1-0.1,0.1-0.2c0,0,0,0.1,0.1,0.1
				s0.1,0,0.1,0L0.9,0.8c0,0,0,0.1,0.1,0.1C0.8,0.9,0.8,0.9,0.7,0.9c0,0.1,0,0.1-0.1,0.1C0.7,1,0.7,0.9,0.7,0.9z"/>
			<path class="st0" d="M1.5,0.7L1.5,0.7C1.4,0.7,1.4,0.7,1.5,0.7c0-0.1,0.1-0.1,0.1-0.2c0,0,0,0.1,0.1,0.1s0.1,0,0.1,0L1.7,0.7
				c0,0,0,0.1,0.1,0.1C1.5,0.8,1.5,0.8,1.5,0.7c0,0.1,0,0.1-0.1,0.1C1.4,0.8,1.4,0.8,1.5,0.7z"/>
			<path class="st0" d="M2.2,0.7c-0.1,0-0.1,0-0.1,0C2.1,0.7,2.2,0.7,2.2,0.7c0-0.1,0.1-0.1,0.1-0.1c0,0.1,0,0.1,0.1,0.1
				c0.1,0,0.1,0,0.1,0L2.4,0.7c0,0.1,0,0.1,0.1,0.1C2.3,0.8,2.3,0.7,2.2,0.7c0,0.1,0,0.1-0.1,0.1C2.1,0.8,2.2,0.7,2.2,0.7z"/>
			<path class="st0" d="M2.9,0.7L2.9,0.7C2.9,0.7,2.9,0.7,2.9,0.7C2.9,0.7,3,0.6,3,0.6c0,0.1,0,0.1,0.1,0.1c0.1,0,0.1,0,0.1,0
				L3.1,0.8c0,0.1,0,0.1,0.1,0.1C3.1,0.9,3,0.8,2.9,0.7C2.9,0.8,2.9,0.8,2.9,0.7C2.9,0.8,2.9,0.8,2.9,0.7z"/>
			<path class="st0" d="M3.7,0.9L3.7,0.9C3.6,0.8,3.7,0.8,3.7,0.9c0-0.1,0.1-0.1,0.1-0.1c0,0.1,0,0.1,0.1,0.1c0.1,0,0.1,0,0.1,0
				c0,0-0.1,0-0.1,0.1s0,0.1,0.1,0.1C3.8,1,3.8,0.9,3.7,0.9C3.7,0.9,3.7,0.9,3.7,0.9C3.7,0.9,3.7,0.9,3.7,0.9z"/>
		</g>
		<g>
			<path class="st0" d="M0.3,1.3L0.3,1.3C0.3,1.3,0.3,1.3,0.3,1.3c0.1-0.1,0.1-0.1,0.1-0.2c0,0,0,0.1,0.1,0.1s0.1,0,0.1-0.1L0.6,1.2
				c0,0,0,0.1,0.1,0.1C0.4,1.4,0.4,1.4,0.3,1.3c0,0.1,0,0.1-0.1,0.1C0.3,1.4,0.3,1.4,0.3,1.3z"/>
			<path class="st0" d="M1.1,1.1C1.1,1.1,1,1.1,1.1,1.1C1.1,1.1,1.1,1.1,1.1,1.1C1.1,1,1.1,1,1.2,0.9c0,0,0,0.1,0.1,0.1
				c0.1,0,0.1,0,0.1,0L1.3,1.1c0,0,0,0.1,0.1,0.1C1.2,1.2,1.1,1.2,1.1,1.1c0,0.1,0,0.1-0.1,0.1C1.1,1.2,1.1,1.1,1.1,1.1z"/>
			<path class="st0" d="M1.8,1L1.8,1C1.7,1,1.8,0.9,1.8,1c0-0.1,0.1-0.1,0.1-0.2c0,0.1,0,0.1,0.1,0.1c0.1,0,0.1,0,0.1,0L2,1
				c0,0.1,0,0.1,0.1,0.1C1.9,1.1,1.9,1.1,1.8,1c0,0.1,0,0.1-0.1,0.1C1.8,1.1,1.8,1.1,1.8,1z"/>
			<path class="st0" d="M2.5,1.1L2.5,1.1C2.5,1,2.5,1,2.5,1.1c0-0.1,0.1-0.1,0.1-0.1c0,0.1,0,0.1,0.1,0.1c0.1,0,0.1,0,0.1,0L2.7,1.1
				c0,0.1,0,0.1,0.1,0.1C2.7,1.1,2.7,1.1,2.5,1.1c0,0.1,0,0.1-0.1,0.1C2.5,1.1,2.5,1.1,2.5,1.1z"/>
			<path class="st0" d="M3.3,1.1L3.3,1.1C3.3,1.1,3.3,1.1,3.3,1.1c0-0.1,0-0.1,0-0.2C3.3,1,3.3,1,3.3,1.1c0.1-0.1,0.1-0.1,0.2-0.1
				c0,0-0.1,0-0.1,0.1c0,0.1,0,0.1,0.1,0.1C3.4,1.2,3.4,1.2,3.3,1.1C3.3,1.2,3.3,1.2,3.3,1.1C3.3,1.2,3.3,1.1,3.3,1.1z"/>
			<path class="st0" d="M4.1,1.3C4,1.3,4,1.2,4.1,1.3C4,1.2,4.1,1.2,4.1,1.3c0-0.1,0.1-0.1,0.1-0.1c0,0.1,0,0.1,0.1,0.1
				c0.1,0,0.1,0,0.1,0c0,0-0.1,0-0.1,0.1c0,0.1,0,0.1,0.1,0.1C4.2,1.4,4.1,1.3,4.1,1.3C4.1,1.3,4.1,1.3,4.1,1.3
				C4.1,1.3,4.1,1.3,4.1,1.3z"/>
		</g>
		<g>
			<path class="st0" d="M0.7,1.5C0.7,1.5,0.6,1.5,0.7,1.5C0.7,1.5,0.7,1.5,0.7,1.5c0.1-0.1,0.1-0.1,0.1-0.2c0,0,0,0.1,0.1,0.1
				s0.1,0,0.1,0L0.9,1.5c0,0,0,0.1,0.1,0.1C0.8,1.6,0.8,1.6,0.7,1.5c0,0.1,0,0.1-0.1,0.1C0.7,1.6,0.7,1.6,0.7,1.5z"/>
			<path class="st0" d="M1.5,1.4C1.4,1.3,1.4,1.3,1.3,1.3C1.4,1.3,1.4,1.3,1.5,1.4c0-0.1,0.1-0.1,0.1-0.2c0,0,0,0.1,0.1,0.1
				s0.1,0,0.1,0L1.7,1.3c0,0,0,0.1,0.1,0.1C1.5,1.5,1.5,1.5,1.5,1.4c0,0.1,0,0.1-0.1,0.1C1.4,1.5,1.4,1.4,1.5,1.4z"/>
			<path class="st0" d="M2.2,1.3L2.2,1.3C2.1,1.3,2.2,1.3,2.2,1.3c0-0.1,0.1-0.1,0.1-0.1c0,0.1,0,0.1,0.1,0.1c0.1,0,0.1,0,0.1,0
				C2.3,1.3,2.3,1.3,2.2,1.3c0.1,0.1,0.1,0.1,0.1,0.1C2.3,1.4,2.3,1.4,2.2,1.3c0,0.1,0,0.1-0.1,0.1C2.1,1.4,2.2,1.4,2.2,1.3z"/>
			<path class="st0" d="M2.9,1.4L2.9,1.4C2.9,1.3,2.9,1.3,2.9,1.4C2.9,1.3,3,1.3,3,1.3c0,0.1,0,0.1,0.1,0.1c0.1,0,0.1,0,0.1,0
				L3.1,1.5c0,0.1,0,0.1,0.1,0.1C3.1,1.5,3,1.5,2.9,1.4C2.9,1.5,2.9,1.5,2.9,1.4C2.9,1.5,2.9,1.4,2.9,1.4z"/>
			<path class="st0" d="M3.7,1.5L3.7,1.5C3.6,1.5,3.7,1.5,3.7,1.5c0-0.1,0.1-0.1,0.1-0.1c0,0.1,0,0.1,0.1,0.1c0.1,0,0.1,0,0.1,0
				c0,0-0.1,0-0.1,0.1s0,0.1,0.1,0.1C3.8,1.6,3.8,1.6,3.7,1.5C3.7,1.6,3.7,1.6,3.7,1.5C3.7,1.6,3.7,1.5,3.7,1.5z"/>
		</g>
		<g>
			<path class="st0" d="M0.3,2L0.3,2C0.3,2,0.3,2,0.3,2c0.1-0.1,0.1-0.1,0.1-0.2c0,0,0,0.1,0.1,0.1s0.1,0,0.1-0.1L0.6,1.9
				c0,0,0,0.1,0.1,0.1C0.4,2,0.4,2,0.3,2c0,0.1,0,0.1-0.1,0.1C0.3,2.1,0.3,2,0.3,2z"/>
			<path class="st0" d="M1.1,1.8C1.1,1.8,1,1.8,1.1,1.8C1.1,1.7,1.1,1.7,1.1,1.8c0.1-0.1,0.1-0.1,0.1-0.2c0,0,0,0.1,0.1,0.1
				c0.1,0,0.1,0,0.1,0L1.3,1.7c0,0,0,0.1,0.1,0.1C1.2,1.8,1.1,1.8,1.1,1.8c0,0.1,0,0.1-0.1,0.1C1.1,1.9,1.1,1.8,1.1,1.8z"/>
			<path class="st0" d="M1.8,1.7L1.8,1.7C1.7,1.6,1.8,1.6,1.8,1.7c0-0.1,0.1-0.1,0.1-0.2c0,0.1,0,0.1,0.1,0.1c0.1,0,0.1,0,0.1,0
				L2,1.7c0,0.1,0,0.1,0.1,0.1C1.9,1.7,1.9,1.7,1.8,1.7c0,0.1,0,0.1-0.1,0.1C1.8,1.7,1.8,1.7,1.8,1.7z"/>
			<path class="st0" d="M2.5,1.7L2.5,1.7C2.5,1.6,2.5,1.6,2.5,1.7c0-0.1,0.1-0.1,0.1-0.1c0,0.1,0,0.1,0.1,0.1c0.1,0,0.1,0,0.1,0
				L2.7,1.7c0,0.1,0,0.1,0.1,0.1C2.7,1.8,2.7,1.7,2.5,1.7c0,0.1,0,0.1-0.1,0.1C2.5,1.7,2.5,1.7,2.5,1.7z"/>
			<path class="st0" d="M3.3,1.7L3.3,1.7C3.3,1.7,3.3,1.7,3.3,1.7c0-0.1,0-0.1,0-0.1C3.3,1.7,3.3,1.7,3.3,1.7c0.1,0,0.1,0,0.2,0
				c0,0-0.1,0-0.1,0.1s0,0.1,0.1,0.1C3.4,1.9,3.4,1.9,3.3,1.7C3.3,1.8,3.3,1.8,3.3,1.7C3.3,1.8,3.3,1.8,3.3,1.7z"/>
			<path class="st0" d="M4.1,1.9C4,1.9,4,1.9,4,1.8C4,1.8,4.1,1.9,4.1,1.9c0-0.1,0.1-0.1,0.1-0.1c0,0.1,0,0.1,0.1,0.1
				c0.1,0,0.1,0,0.1,0c0,0-0.1,0-0.1,0.1c0,0.1,0,0.1,0.1,0.1C4.2,2,4.1,2,4.1,1.9C4.1,2,4.1,2,4.1,1.9C4.1,2,4.1,1.9,4.1,1.9z"/>
		</g>
		<g>
			<path class="st0" d="M0.7,2.2C0.7,2.2,0.6,2.2,0.7,2.2C0.7,2.1,0.7,2.1,0.7,2.2C0.7,2.1,0.7,2.1,0.8,2c0,0,0,0.1,0.1,0.1
				s0.1,0,0.1,0L0.9,2.1c0,0,0,0.1,0.1,0.1C0.8,2.2,0.8,2.2,0.7,2.2c0,0.1,0,0.1-0.1,0.1C0.7,2.3,0.7,2.2,0.7,2.2z"/>
			<path class="st0" d="M1.5,2C1.4,2,1.4,2,1.3,2C1.4,2,1.4,1.9,1.5,2c0-0.1,0.1-0.1,0.1-0.2c0,0,0,0.1,0.1,0.1s0.1,0,0.1,0
				C1.6,2,1.6,2,1.5,2c0.1,0,0.1,0.1,0.1,0.1C1.5,2.1,1.5,2.1,1.5,2c0,0.1,0,0.1-0.1,0.1C1.4,2.1,1.4,2.1,1.5,2z"/>
			<path class="st0" d="M2.2,2L2.2,2C2.1,1.9,2.2,1.9,2.2,2c0-0.1,0.1-0.1,0.1-0.1c0,0.1,0,0.1,0.1,0.1c0.1,0,0.1,0,0.1,0L2.4,2.1
				c0,0.1,0,0.1,0.1,0.1C2.3,2.1,2.3,2.1,2.2,2c0,0.1,0,0.1-0.1,0.1C2.1,2.1,2.2,2,2.2,2z"/>
			<path class="st0" d="M2.9,2.1L2.9,2.1C2.9,2,2.9,2,2.9,2.1C2.9,2,3,1.9,3,1.9C3,2,3,2,3.1,2.1c0.1,0,0.1,0,0.1,0L3.1,2.1
				c0,0.1,0,0.1,0.1,0.1C3.1,2.1,3,2.1,2.9,2.1C2.9,2.1,2.9,2.1,2.9,2.1C2.9,2.1,2.9,2.1,2.9,2.1z"/>
			<path class="st0" d="M3.7,2.1L3.7,2.1C3.6,2.1,3.7,2.1,3.7,2.1C3.7,2.1,3.7,2,3.7,2c0,0.1,0,0.1,0.1,0.1c0.1,0,0.1,0,0.1,0
				c0,0-0.1,0-0.1,0.1s0,0.1,0.1,0.1C3.8,2.3,3.8,2.2,3.7,2.1C3.7,2.2,3.7,2.2,3.7,2.1C3.7,2.2,3.7,2.2,3.7,2.1z"/>
		</g>
		<g>
			<path class="st0" d="M0.3,2.6L0.3,2.6C0.3,2.6,0.3,2.6,0.3,2.6c0.1-0.1,0.1-0.1,0.1-0.2c0,0,0,0.1,0.1,0.1s0.1,0,0.1-0.1L0.6,2.5
				c0,0,0,0.1,0.1,0.1C0.4,2.7,0.4,2.7,0.3,2.6c0,0.1,0,0.1-0.1,0.1C0.3,2.7,0.3,2.7,0.3,2.6z"/>
			<path class="st0" d="M1.1,2.4C1.1,2.4,1,2.4,1.1,2.4C1.1,2.3,1.1,2.3,1.1,2.4c0.1-0.1,0.1-0.1,0.1-0.2c0,0,0,0.1,0.1,0.1
				c0.1,0,0.1,0,0.1,0L1.3,2.3c0,0,0,0.1,0.1,0.1C1.2,2.5,1.1,2.5,1.1,2.4c0,0.1,0,0.1-0.1,0.1C1.1,2.5,1.1,2.5,1.1,2.4z"/>
			<path class="st0" d="M1.8,2.3L1.8,2.3C1.7,2.3,1.8,2.3,1.8,2.3c0-0.1,0.1-0.1,0.1-0.2c0,0.1,0,0.1,0.1,0.1c0.1,0,0.1,0,0.1,0
				L2,2.3c0,0.1,0,0.1,0.1,0.1C1.9,2.4,1.9,2.4,1.8,2.3c0,0.1,0,0.1-0.1,0.1C1.8,2.4,1.8,2.3,1.8,2.3z"/>
			<path class="st0" d="M2.5,2.3L2.5,2.3C2.5,2.3,2.5,2.3,2.5,2.3c0-0.1,0.1-0.1,0.1-0.1c0,0.1,0,0.1,0.1,0.1c0.1,0,0.1,0,0.1,0
				L2.7,2.4c0,0.1,0,0.1,0.1,0.1C2.7,2.4,2.7,2.4,2.5,2.3c0,0.1,0,0.1-0.1,0.1C2.5,2.4,2.5,2.3,2.5,2.3z"/>
			<path class="st0" d="M3.3,2.4L3.3,2.4C3.3,2.3,3.3,2.3,3.3,2.4c0-0.1,0-0.1,0-0.1C3.3,2.3,3.3,2.3,3.3,2.4c0.1,0,0.1,0,0.2,0
				c0,0-0.1,0-0.1,0.1s0,0.1,0.1,0.1C3.4,2.5,3.4,2.5,3.3,2.4C3.3,2.5,3.3,2.5,3.3,2.4C3.3,2.5,3.3,2.5,3.3,2.4z"/>
			<path class="st0" d="M4.1,2.5C4,2.5,4,2.5,4.1,2.5C4,2.5,4.1,2.5,4.1,2.5c0-0.1,0.1-0.1,0.1-0.1c0,0.1,0,0.1,0.1,0.1
				c0.1,0,0.1,0,0.1,0c0,0-0.1,0-0.1,0.1s0,0.1,0.1,0.1C4.2,2.7,4.1,2.6,4.1,2.5C4.1,2.6,4.1,2.6,4.1,2.5C4.1,2.6,4.1,2.6,4.1,2.5z"
				/>
		</g>
		<g>
			<path class="st0" d="M0.7,2.8C0.7,2.8,0.6,2.8,0.7,2.8C0.7,2.7,0.7,2.7,0.7,2.8c0.1-0.1,0.1-0.1,0.1-0.2c0,0,0,0.1,0.1,0.1
				s0.1,0,0.1,0L0.9,2.7c0,0,0,0.1,0.1,0.1C0.8,2.9,0.8,2.9,0.7,2.8c0,0.1,0,0.1-0.1,0.1C0.7,2.9,0.7,2.9,0.7,2.8z"/>
			<path class="st0" d="M1.5,2.7c-0.1,0-0.1,0-0.1-0.1C1.4,2.6,1.4,2.6,1.5,2.7c0-0.1,0.1-0.1,0.1-0.2c0,0,0,0.1,0.1,0.1
				s0.1,0,0.1,0L1.7,2.6c0,0,0,0.1,0.1,0.1C1.5,2.7,1.5,2.7,1.5,2.7c0,0.1,0,0.1-0.1,0.1C1.4,2.7,1.4,2.7,1.5,2.7z"/>
			<path class="st0" d="M2.2,2.6L2.2,2.6C2.1,2.6,2.2,2.6,2.2,2.6c0-0.1,0.1-0.1,0.1-0.1c0,0.1,0,0.1,0.1,0.1c0.1,0,0.1,0,0.1,0
				L2.4,2.7c0,0.1,0,0.1,0.1,0.1C2.3,2.7,2.3,2.7,2.2,2.6c0,0.1,0,0.1-0.1,0.1C2.1,2.7,2.2,2.7,2.2,2.6z"/>
			<path class="st0" d="M2.9,2.7L2.9,2.7C2.9,2.6,2.9,2.6,2.9,2.7C2.9,2.6,3,2.5,3,2.5c0,0.1,0,0.1,0.1,0.1c0.1,0,0.1,0,0.1,0
				c-0.1,0-0.1,0-0.1,0c0,0.1,0,0.1,0.1,0.1C3.1,2.8,3,2.7,2.9,2.7C2.9,2.7,2.9,2.7,2.9,2.7C2.9,2.7,2.9,2.7,2.9,2.7z"/>
			<path class="st0" d="M3.7,2.8L3.7,2.8C3.6,2.7,3.7,2.7,3.7,2.8c0.1-0.1,0.1-0.1,0.1-0.1c0,0.1,0,0.1,0.1,0.1c0.1,0,0.1,0,0.1,0
				c0,0-0.1,0-0.1,0.1s0,0.1,0.1,0.1C3.8,2.9,3.8,2.9,3.7,2.8C3.7,2.9,3.7,2.9,3.7,2.8C3.7,2.9,3.7,2.8,3.7,2.8z"/>
		</g>
		<g>
			<path class="st0" d="M0.3,3.3L0.3,3.3C0.3,3.3,0.3,3.3,0.3,3.3c0.1-0.1,0.1-0.1,0.1-0.2c0,0,0,0.1,0.1,0.1s0.1,0,0.1-0.1L0.6,3.1
				c0,0,0,0.1,0.1,0.1C0.4,3.3,0.4,3.3,0.3,3.3c0,0.1,0,0.1-0.1,0.1C0.3,3.3,0.3,3.3,0.3,3.3z"/>
			<path class="st0" d="M1.1,3.1C1.1,3.1,1,3.1,1.1,3.1C1.1,3,1.1,3,1.1,3.1c0.1-0.1,0.1-0.1,0.1-0.2c0,0,0,0.1,0.1,0.1
				c0.1,0,0.1,0,0.1,0L1.3,3c0,0,0,0.1,0.1,0.1C1.2,3.1,1.1,3.1,1.1,3.1c0,0.1,0,0.1-0.1,0.1C1.1,3.1,1.1,3.1,1.1,3.1z"/>
			<path class="st0" d="M1.8,2.9L1.8,2.9C1.7,2.9,1.8,2.9,1.8,2.9c0-0.1,0.1-0.1,0.1-0.2c0,0.1,0,0.1,0.1,0.1c0.1,0,0.1,0,0.1,0
				L2,2.9C2,3,2,3,2.1,3.1C1.9,3.1,1.9,3,1.8,2.9c0,0.1,0,0.1-0.1,0.1C1.8,3,1.8,3,1.8,2.9z"/>
			<path class="st0" d="M2.5,3L2.5,3C2.5,2.9,2.5,2.9,2.5,3c0-0.1,0.1-0.1,0.1-0.1c0,0.1,0,0.1,0.1,0.1c0.1,0,0.1,0,0.1,0L2.7,3.1
				c0,0.1,0,0.1,0.1,0.1C2.7,3.1,2.7,3.1,2.5,3c0,0.1,0,0.1-0.1,0.1C2.5,3.1,2.5,3,2.5,3z"/>
			<path class="st0" d="M3.3,3.1L3.3,3.1C3.3,3,3.3,3,3.3,3.1c0-0.1,0-0.1,0-0.2C3.3,2.9,3.3,2.9,3.3,3.1C3.5,3,3.5,3,3.5,3
				c0,0-0.1,0-0.1,0.1s0,0.1,0.1,0.1C3.4,3.1,3.4,3.1,3.3,3.1C3.3,3.1,3.3,3.1,3.3,3.1C3.3,3.1,3.3,3.1,3.3,3.1z"/>
			<path class="st0" d="M4.1,3.2C4,3.2,4,3.1,4.1,3.2C4,3.1,4.1,3.1,4.1,3.2c0-0.1,0.1-0.1,0.1-0.1c0,0.1,0,0.1,0.1,0.1
				c0.1,0,0.1,0,0.1,0c0,0-0.1,0-0.1,0.1s0,0.1,0.1,0.1C4.2,3.3,4.1,3.3,4.1,3.2C4.1,3.3,4.1,3.3,4.1,3.2C4.1,3.3,4.1,3.2,4.1,3.2z"
				/>
		</g>
	</g>
</g>
</svg>
