<?xml version="1.0" encoding="utf-8"?>
<!-- Generator: Adobe Illustrator 26.5.3, SVG Export Plug-In . SVG Version: 6.00 Build 0)  -->
<svg version="1.1" id="Layer_1" xmlns="http://www.w3.org/2000/svg" xmlns:xlink="http://www.w3.org/1999/xlink" x="0px" y="0px"
	 viewBox="0 0 10 10" style="enable-background:new 0 0 10 10;" xml:space="preserve">
<style type="text/css">
	.st0{fill:#5E707E;}
</style>
<path class="st0" d="M3.2,0.5C3.1,0.1,2.7-0.1,2.3,0L0.6,0.5C0.2,0.6,0,0.9,0,1.2C0,6.1,3.9,10,8.8,10c0.4,0,0.7-0.2,0.8-0.6L10,7.7
	c0.1-0.4-0.1-0.8-0.5-0.9L7.7,6C7.3,5.9,7,5.9,6.8,6.2L6,7.2C4.6,6.5,3.5,5.4,2.8,4l1-0.8C4.1,3,4.1,2.7,4,2.3L3.2,0.5L3.2,0.5z"/>
</svg>
