<?xml version="1.0" encoding="utf-8"?>
<!-- Generator: Adobe Illustrator 26.5.3, SVG Export Plug-In . SVG Version: 6.00 Build 0)  -->
<svg version="1.1" id="Layer_1" xmlns="http://www.w3.org/2000/svg" xmlns:xlink="http://www.w3.org/1999/xlink" x="0px" y="0px"
	 viewBox="0 0 10 10" style="enable-background:new 0 0 10 10;" xml:space="preserve">
<style type="text/css">
	.st0{fill-rule:evenodd;clip-rule:evenodd;fill:#868B99;}
	.st1{fill-rule:evenodd;clip-rule:evenodd;fill:#EEF1F9;}
</style>
<rect x="1.3" y="0.9" class="st0" width="7.3" height="7.7"/>
<path class="st1" d="M8,0H2C0.9,0,0,0.9,0,2v6c0,1.1,0.9,2,2,2h6c1.1,0,2-0.9,2-2V2C10,0.9,9.1,0,8,0z M3.4,7.7H2.2V4h1.1L3.4,7.7
	L3.4,7.7z M2.8,3.4c-0.4,0-0.7-0.3-0.7-0.7S2.4,2,2.8,2s0.7,0.3,0.7,0.7S3.2,3.4,2.8,3.4z M7.8,5.8v0.7v1.3H6.6l0,0V7.4V5.7
	C6.6,5.3,6.3,5,5.9,5S5.1,5.3,5.1,5.7v1.5v0.6H4V4h1.1v0.5C5.4,4.2,5.7,4,6.2,4h0.3c0.7,0,1.3,0.6,1.3,1.3V5.8z"/>
</svg>
