<?xml version="1.0" encoding="utf-8"?>
<!-- Generator: Adobe Illustrator 26.5.3, SVG Export Plug-In . SVG Version: 6.00 Build 0)  -->
<svg version="1.1" id="Layer_1" xmlns="http://www.w3.org/2000/svg" xmlns:xlink="http://www.w3.org/1999/xlink" x="0px" y="0px"
	 viewBox="0 0 10 10" style="enable-background:new 0 0 10 10;" xml:space="preserve">
<style type="text/css">
	.st0{fill-rule:evenodd;clip-rule:evenodd;fill:#868B99;}
	.st1{fill-rule:evenodd;clip-rule:evenodd;fill:#EEF1F9;}
</style>
<rect x="1.4" y="1.4" class="st0" width="7.5" height="7.2"/>
<path class="st1" d="M8,0H2C0.9,0,0,0.9,0,2v6c0,1.1,0.9,2,2,2h6c1.1,0,2-0.9,2-2V2C10,0.9,9.1,0,8,0z M7.8,3.7
	c0.2,3.2-3.2,5.1-6,3.5c0,0,1.4,0.1,2-0.6c0,0-0.8,0.1-1.3-1c0,0,0.3,0.1,0.6,0c0,0-1-0.2-1.1-1.3c0,0,0.3,0.2,0.7,0.2
	c0,0-1.1-0.7-0.5-1.8c0,0,1.2,1.5,2.8,1.4C4.8,2.7,6.5,1.8,7.5,2.8c0,0,0.4-0.1,0.8-0.4c0,0-0.1,0.5-0.6,0.8c0,0,0.5-0.1,0.8-0.2
	C8.4,3,8.2,3.5,7.8,3.7z"/>
</svg>
